<?xml version="1.0" encoding="UTF-8"?>
<svg version="1.1" xmlns="http://www.w3.org/2000/svg" width="106" height="92">
<path d="M0 0 C6.31279746 5.18233675 9.65075135 10.7444886 12.6875 18.1875 C13.1825 19.1775 13.1825 19.1775 13.6875 20.1875 C14.26245861 28.34060157 14.75274618 36.05623444 10.66015625 43.390625 C9.58604578 45.37492547 8.94082995 46.93919673 8.6875 49.1875 C9.95382164 50.64864036 11.2232856 52.10759399 12.52734375 53.53515625 C14.52642598 56.38233397 14.19690344 58.87637766 13.6875 62.1875 C10.16925489 64.53299674 8.82974306 64.76741403 4.6875 64.1875 C3.00087542 62.54103315 1.33238294 60.87566933 -0.3125 59.1875 C-2.29658755 59.41483534 -2.29658755 59.41483534 -4.3125 60.1875 C-15.10817727 63.46475917 -25.10328574 63.28426595 -35.3125 58.1875 C-43.99082028 52.86382454 -49.48405084 45.692507 -51.91015625 35.734375 C-53.67433616 24.5669449 -51.53368106 15.46206497 -45.046875 6.26171875 C-34.00071549 -6.94889093 -14.14186119 -10.14698515 0 0 Z M-36.3125 15.1875 C-40.17562369 20.70624814 -41.14712169 26.51052648 -40.3125 33.1875 C-38.09266605 41.1016906 -34.79665671 45.60922403 -28.1875 50.5 C-23.55793653 53.0131916 -18.43386561 52.86198307 -13.3125 52.1875 C-11.0517799 51.24906351 -11.0517799 51.24906351 -9.3125 50.1875 C-9.08276208 47.83957959 -9.08276208 47.83957959 -11.75 45.625 C-12.595625 44.820625 -13.44125 44.01625 -14.3125 43.1875 C-15.3125 42.1875 -15.3125 42.1875 -15.5 38.75 C-15.3125 35.1875 -15.3125 35.1875 -13.3125 33.1875 C-9.9060135 33.1875 -7.36096 33.24597249 -4.7421875 35.59765625 C-3.52464006 37.0691493 -2.40998597 38.62441392 -1.3125 40.1875 C1.86751402 37.00748598 1.64469421 33.82958692 1.9375 29.4375 C1.8315265 23.19683806 -0.0821164 18.0506523 -3.5 12.875 C-8.2861594 8.3015588 -12.69310006 5.99214589 -19.375 5.6875 C-26.77297914 6.01655122 -31.47923403 9.68294709 -36.3125 15.1875 Z " fill="#8EE884" transform="translate(70.3125,15.8125)"/>
<path d="M0 0 C2.26509096 1.46587642 4.03522957 2.95635589 5.89453125 4.90625 C6.46042969 5.44765625 7.02632812 5.9890625 7.609375 6.546875 C11.63761377 10.76224467 13.76369061 15.54090253 15.89453125 20.90625 C16.38953125 21.89625 16.38953125 21.89625 16.89453125 22.90625 C17.46948986 31.05935157 17.95977743 38.77498444 13.8671875 46.109375 C12.81640682 48.05057625 12.2273593 49.72437725 11.89453125 51.90625 C12.36890625 52.31875 12.84328125 52.73125 13.33203125 53.15625 C15.913661 56.04767532 15.07962231 59.14273185 14.89453125 62.90625 C12.74930971 64.20870593 11.36787283 64.92059368 8.83203125 64.84375 C6.07931502 63.51179053 5.26024246 61.56938685 3.89453125 58.90625 C5.34859375 59.1846875 5.34859375 59.1846875 6.83203125 59.46875 C7.84265625 59.613125 8.85328125 59.7575 9.89453125 59.90625 C10.22453125 59.57625 10.55453125 59.24625 10.89453125 58.90625 C9.60487949 57.53062146 8.26763832 56.19858607 6.89453125 54.90625 C6.23453125 54.90625 5.57453125 54.90625 4.89453125 54.90625 C4.89453125 55.56625 4.89453125 56.22625 4.89453125 56.90625 C4.23453125 56.90625 3.57453125 56.90625 2.89453125 56.90625 C2.56453125 55.91625 2.23453125 54.92625 1.89453125 53.90625 C-0.08546875 53.57625 -2.06546875 53.24625 -4.10546875 52.90625 C-4.10546875 51.91625 -4.10546875 50.92625 -4.10546875 49.90625 C-4.66234375 49.82375 -5.21921875 49.74125 -5.79296875 49.65625 C-9.00144236 48.61566397 -10.78051718 47.36036554 -13.10546875 44.90625 C-13.60104058 41.37530072 -13.73344715 39.08832699 -12.04296875 35.90625 C-8.74924252 34.20626227 -6.58412343 34.88664432 -3.10546875 35.90625 C-1.05356791 37.75858941 0.28878709 39.61928104 1.89453125 41.90625 C4.86601344 34.47754452 4.51600568 28.29349229 1.8046875 20.94140625 C-0.43044148 15.94354273 -4.4363003 11.75001812 -9.10546875 8.90625 C-11.90461759 8.20517278 -14.60362312 8.11716014 -17.48046875 8.09375 C-18.21652344 8.06861328 -18.95257813 8.04347656 -19.7109375 8.01757812 C-21.50855024 7.95921407 -23.30706225 7.92974462 -25.10546875 7.90625 C-27.10546875 2.15625 -27.10546875 2.15625 -27.10546875 -0.09375 C-18.97559547 -2.36338285 -7.97922464 -2.81029295 0 0 Z " fill="#69E15C" transform="translate(67.10546875,13.09375)"/>
<path d="M0 0 C0 0.33 0 0.66 0 1 C-10.395 1.495 -10.395 1.495 -21 2 C-20.34 3.65 -19.68 5.3 -19 7 C-19 7.66 -19 8.32 -19 9 C-17.87980469 9.03738281 -16.75960937 9.07476562 -15.60546875 9.11328125 C-14.1327791 9.17894257 -12.66012434 9.24538986 -11.1875 9.3125 C-10.08051758 9.34633789 -10.08051758 9.34633789 -8.95117188 9.38085938 C-3.45025238 9.6546608 -3.45025238 9.6546608 -0.98828125 11.54296875 C-0.66214844 12.02378906 -0.33601563 12.50460938 0 13 C-0.61875 12.835 -1.2375 12.67 -1.875 12.5 C-9.86509006 11.22158559 -15.24159722 11.40428611 -22 16 C-23.1446875 16.4640625 -23.1446875 16.4640625 -24.3125 16.9375 C-26.81386721 18.51243491 -27.13164643 20.20886354 -28 23 C-28.37125 24.093125 -28.7425 25.18625 -29.125 26.3125 C-31.09629223 34.62008866 -29.86522856 40.49111649 -26 48 C-25.09105348 49.25042919 -24.15518252 50.48195138 -23.1875 51.6875 C-21 55 -21 55 -21.1875 58.9375 C-21.455625 59.948125 -21.72375 60.95875 -22 62 C-22.66 62 -23.32 62 -24 62 C-24.33 60.68 -24.66 59.36 -25 58 C-26.32 57.67 -27.64 57.34 -29 57 C-29.33 57.66 -29.66 58.32 -30 59 C-32.31 56.36 -34.62 53.72 -37 51 C-36.67 50.34 -36.34 49.68 -36 49 C-34.35 49 -32.7 49 -31 49 C-31.10828125 48.09121094 -31.10828125 48.09121094 -31.21875 47.1640625 C-32.20197576 38.2877188 -32.30973698 29.84072462 -31 21 C-31.66 21 -32.32 21 -33 21 C-33 20.34 -33 19.68 -33 19 C-33.66 19 -34.32 19 -35 19 C-34.34 17.35 -33.68 15.7 -33 14 C-34.32 14.33 -35.64 14.66 -37 15 C-37 15.99 -37 16.98 -37 18 C-37.66 18 -38.32 18 -39 18 C-36.47652447 10.20016656 -31.52373506 6.17220593 -24.6171875 2.2578125 C-16.90140531 -1.45036939 -8.29902635 -2.07475659 0 0 Z " fill="#87E87B" transform="translate(61,11)"/>
<path d="M0 0 C2.4375 1.8125 2.4375 1.8125 4 4 C4 5.32 4 6.64 4 8 C4.886875 7.67 5.77375 7.34 6.6875 7 C9.70923347 6.08777857 11.88373706 5.81669042 15 6 C15.6875 7.625 15.6875 7.625 16 10 C15.06553465 12.03144641 14.06775224 14.03533587 13 16 C13 16.66 13 17.32 13 18 C13.825 18.4125 14.65 18.825 15.5 19.25 C16.7375 20.11625 16.7375 20.11625 18 21 C18.3125 24.1875 18.3125 24.1875 18 27 C15.85477846 28.30245593 14.47334158 29.01434368 11.9375 28.9375 C9.18478377 27.60554053 8.36571121 25.66313685 7 23 C7.969375 23.185625 8.93875 23.37125 9.9375 23.5625 C10.948125 23.706875 11.95875 23.85125 13 24 C13.33 23.67 13.66 23.34 14 23 C12.71034824 21.62437146 11.37310707 20.29233607 10 19 C9.34 19 8.68 19 8 19 C8 19.66 8 20.32 8 21 C7.34 21 6.68 21 6 21 C5.67 20.01 5.34 19.02 5 18 C3.02 17.67 1.04 17.34 -1 17 C-1 16.01 -1 15.02 -1 14 C-1.556875 13.9175 -2.11375 13.835 -2.6875 13.75 C-5.89597361 12.70941397 -7.67504843 11.45411554 -10 9 C-10.49557183 5.46905072 -10.6279784 3.18207699 -8.9375 0 C-5.72893873 -1.65603162 -3.40062855 -0.89490225 0 0 Z " fill="#5AE350" transform="translate(64,49)"/>
<path d="M0 0 C-0.66 1.65 -1.32 3.3 -2 5 C-0.68 5 0.64 5 2 5 C2.864737 7.49812912 3.00138938 8.99221949 2.53125 11.625 C1.90765621 15.58665466 1.89048234 19.37488194 1.9375 23.375 C1.94201172 24.11105469 1.94652344 24.84710938 1.95117188 25.60546875 C1.96284858 27.40368158 1.98077989 29.20185197 2 31 C1.01 30.01 0.02 29.02 -1 28 C-1.33 29.65 -1.66 31.3 -2 33 C-3.98 33.495 -3.98 33.495 -6 34 C-6.33 32.35 -6.66 30.7 -7 29 C-7.66 29 -8.32 29 -9 29 C-10.96883864 20.17198157 -10.46519479 12.35359459 -7 4 C-6.01 4 -5.02 4 -4 4 C-4 3.01 -4 2.02 -4 1 C-2 0 -2 0 0 0 Z " fill="#70E260" transform="translate(28,25)"/>
<path d="M0 0 C1.11761719 -0.00193359 1.11761719 -0.00193359 2.2578125 -0.00390625 C3.02609375 -0.00003906 3.794375 0.00382813 4.5859375 0.0078125 C5.36195312 0.00394531 6.13796875 0.00007812 6.9375 -0.00390625 C12.70753484 0.00611117 12.70753484 0.00611117 14.9609375 1.1328125 C14.9609375 1.7928125 14.9609375 2.4528125 14.9609375 3.1328125 C17.4359375 3.6278125 17.4359375 3.6278125 19.9609375 4.1328125 C19.9609375 5.7828125 19.9609375 7.4328125 19.9609375 9.1328125 C19.3009375 8.8028125 18.6409375 8.4728125 17.9609375 8.1328125 C17.9609375 7.4728125 17.9609375 6.8128125 17.9609375 6.1328125 C16.6409375 6.4628125 15.3209375 6.7928125 13.9609375 7.1328125 C14.9509375 7.4628125 15.9409375 7.7928125 16.9609375 8.1328125 C17.2909375 9.7828125 17.6209375 11.4328125 17.9609375 13.1328125 C12.2109375 11.2578125 12.2109375 11.2578125 9.9609375 10.1328125 C7.24831634 9.9005479 4.55320624 9.71345015 1.8359375 9.5703125 C1.08183594 9.52712891 0.32773437 9.48394531 -0.44921875 9.43945312 C-2.31228138 9.3333293 -4.17564774 9.23256249 -6.0390625 9.1328125 C-8.0390625 3.3828125 -8.0390625 3.3828125 -8.0390625 1.1328125 C-5.29406407 0.36047011 -2.84886983 0.00473571 0 0 Z " fill="#5BDC4D" transform="translate(48.0390625,11.8671875)"/>
<path d="M0 0 C0.66 0 1.32 0 2 0 C2.66 0.99 3.32 1.98 4 3 C7.41278228 4.07772072 9.61033479 3.95199108 13 3 C16.0517291 10.50216736 16.33608711 16.94635715 16 25 C15.34 25 14.68 25 14 25 C14 25.99 14 26.98 14 28 C12.35 28 10.7 28 9 28 C6.2651993 20.57696952 5.01971537 12.81781783 4 5 C3.01 4.67 2.02 4.34 1 4 C0.3125 1.9375 0.3125 1.9375 0 0 Z " fill="#5BDE4E" transform="translate(67,26)"/>
<path d="M0 0 C5.10099703 4.75807286 6.1453174 10.03673998 6.40771484 16.82446289 C6.49696175 23.15587261 6.12029271 28.56219945 2.97265625 34.203125 C1.91836702 36.15080792 1.32855232 37.80965118 1 40 C2.35444301 41.77190909 2.35444301 41.77190909 4 43 C3.67 43.66 3.34 44.32 3 45 C1.35 44.01 -0.3 43.02 -2 42 C-1.690625 40.9275 -1.38125 39.855 -1.0625 38.75 C-0.33187904 36.17133778 0.37482904 33.60487898 1 31 C-2.83225427 30.91087781 -6.26562152 31.12132271 -10 32 C-9.67 31.34 -9.34 30.68 -9 30 C-5.38318396 21.06433685 -7.26264698 13.86380977 -10 5 C-7 6 -7 6 -6.12109375 7.71484375 C-3.97221184 14.70177978 -2 21.65288148 -2 29 C-0.35 29 1.3 29 3 29 C3 28.01 3 27.02 3 26 C3.66 26 4.32 26 5 26 C4.55761615 18.46783285 3.86094772 11.3197277 2 4 C1.34 4 0.68 4 0 4 C0 2.68 0 1.36 0 0 Z " fill="#98EA8F" transform="translate(78,25)"/>
<path d="M0 0 C0 0.66 0 1.32 0 2 C1.32 2.66 2.64 3.32 4 4 C3.01 4 2.02 4 1 4 C1 4.66 1 5.32 1 6 C-3.53633712 7.75062321 -7.33376649 8.27080915 -12.1875 8.25 C-14.00314453 8.25773437 -14.00314453 8.25773437 -15.85546875 8.265625 C-19 8 -19 8 -22 6 C-19.03 6 -16.06 6 -13 6 C-13 5.34 -13 4.68 -13 4 C-15.64 4 -18.28 4 -21 4 C-21.33 3.01 -21.66 2.02 -22 1 C-19.08340625 0.83196579 -16.16673658 0.66552033 -13.25 0.5 C-12.0125 0.42845703 -12.0125 0.42845703 -10.75 0.35546875 C-9.55117188 0.28779297 -9.55117188 0.28779297 -8.328125 0.21875 C-7.5949707 0.17685547 -6.86181641 0.13496094 -6.10644531 0.09179688 C-4.07266386 0.00316662 -2.03571175 0 0 0 Z " fill="#58DD49" transform="translate(66,68)"/>
<path d="M0 0 C0.33 1.32 0.66 2.64 1 4 C1.66 4 2.32 4 3 4 C3 3.34 3 2.68 3 2 C3.99 1.67 4.98 1.34 6 1 C6.103125 1.639375 6.20625 2.27875 6.3125 2.9375 C6.6528125 3.9584375 6.6528125 3.9584375 7 5 C7.99 5.33 8.98 5.66 10 6 C8.1875 7.0625 8.1875 7.0625 6 8 C5.01 7.67 4.02 7.34 3 7 C3.99 8.32 4.98 9.64 6 11 C9.465 10.505 9.465 10.505 13 10 C13 8.02 13 6.04 13 4 C13.66 4.33 14.32 4.66 15 5 C15.1875 8.375 15.1875 8.375 15 12 C11.48175489 14.34549674 10.14224306 14.57991403 6 14 C3.3125 11.5625 3.3125 11.5625 1 9 C0.01 8.67 -0.98 8.34 -2 8 C-1.67 7.01 -1.34 6.02 -1 5 C-1.66 4.67 -2.32 4.34 -3 4 C-3 3.34 -3 2.68 -3 2 C-5.64 2.33 -8.28 2.66 -11 3 C-10 1 -10 1 -8.3125 0.375 C-5.51555886 -0.07855802 -2.82858003 -0.06428591 0 0 Z " fill="#66E05A" transform="translate(69,66)"/>
<path d="M0 0 C2.5 1.75 2.5 1.75 4 4 C3.75 6.75 3.75 6.75 3 9 C1.02 9 -0.96 9 -3 9 C-3 8.34 -3 7.68 -3 7 C-4.32 7 -5.64 7 -7 7 C-6.67 8.65 -6.34 10.3 -6 12 C-8 10.9375 -8 10.9375 -10 9 C-10.43422916 5.52616674 -10.60216895 3.1334945 -8.9375 0 C-5.72893873 -1.65603162 -3.40062855 -0.89490225 0 0 Z " fill="#70E260" transform="translate(64,49)"/>
<path d="M0 0 C2.5 2.5 2.5 2.5 5 5 C5.94875 5.78375 6.8975 6.5675 7.875 7.375 C10 10 10 10 9.8125 13.8125 C9.544375 14.864375 9.27625 15.91625 9 17 C8.34 17 7.68 17 7 17 C6.67 15.68 6.34 14.36 6 13 C4.68 12.67 3.36 12.34 2 12 C1.67 12.66 1.34 13.32 1 14 C-1.31 11.36 -3.62 8.72 -6 6 C-5.67 5.34 -5.34 4.68 -5 4 C-3.35 4 -1.7 4 0 4 C0 2.68 0 1.36 0 0 Z " fill="#5CDC50" transform="translate(30,56)"/>
<path d="M0 0 C0.99 0.33 1.98 0.66 3 1 C2.11223998 4.69900008 1.05418136 8.34550461 0 12 C0.825 12.37125 1.65 12.7425 2.5 13.125 C3.325 13.74375 4.15 14.3625 5 15 C5.3125 18.1875 5.3125 18.1875 5 21 C2.85477846 22.30245593 1.47334158 23.01434368 -1.0625 22.9375 C-3.81521623 21.60554053 -4.63428879 19.66313685 -6 17 C-5.030625 17.185625 -4.06125 17.37125 -3.0625 17.5625 C-2.051875 17.706875 -1.04125 17.85125 0 18 C0.33 17.67 0.66 17.34 1 17 C0.505 16.54625 0.01 16.0925 -0.5 15.625 C-2 14 -2 14 -2 12 C-2.66 12 -3.32 12 -4 12 C-3.71640113 10.5608866 -3.42278601 9.12374482 -3.125 7.6875 C-2.88136719 6.48673828 -2.88136719 6.48673828 -2.6328125 5.26171875 C-2 3 -2 3 0 0 Z " fill="#54DF48" transform="translate(77,55)"/>
<path d="M0 0 C2.22189824 2.22189824 2.92598892 4.08482708 4 7 C4.99 6.67 5.98 6.34 7 6 C6.566875 7.0209375 6.566875 7.0209375 6.125 8.0625 C2.43431215 17.69929604 1.88451069 24.29434338 5.9296875 33.703125 C6.91710634 35.82211141 7.93930792 37.91683899 9 40 C3.56396867 37.28198433 3.56396867 37.28198433 2.15625 34.08203125 C0.15558052 25.77042644 0.75921333 17.37531005 2 9 C1.34 9 0.68 9 0 9 C0 8.34 0 7.68 0 7 C-0.66 7 -1.32 7 -2 7 C-1.34 5.35 -0.68 3.7 0 2 C-1.32 2.33 -2.64 2.66 -4 3 C-4 3.99 -4 4.98 -4 6 C-4.66 6 -5.32 6 -6 6 C-5.25 3.5625 -5.25 3.5625 -4 1 C-2 0.0625 -2 0.0625 0 0 Z " fill="#70E265" transform="translate(28,23)"/>
<path d="M0 0 C0.98484375 0.00902344 1.9696875 0.01804687 2.984375 0.02734375 C4.10585938 0.04474609 4.10585938 0.04474609 5.25 0.0625 C5.58 0.7225 5.91 1.3825 6.25 2.0625 C2.95 2.3925 -0.35 2.7225 -3.75 3.0625 C-4.08 4.0525 -4.41 5.0425 -4.75 6.0625 C-3.59371094 6.02769531 -3.59371094 6.02769531 -2.4140625 5.9921875 C-1.41117188 5.97414063 -0.40828125 5.95609375 0.625 5.9375 C1.62273438 5.91429687 2.62046875 5.89109375 3.6484375 5.8671875 C6.25 6.0625 6.25 6.0625 8.25 8.0625 C0.33 8.5575 0.33 8.5575 -7.75 9.0625 C-9.75 3.0625 -9.75 3.0625 -9.75 1.0625 C-6.43929162 0.06140485 -3.44915231 -0.04106134 0 0 Z " fill="#50DE41" transform="translate(49.75,11.9375)"/>
<path d="M0 0 C-0.66 3.3 -1.32 6.6 -2 10 C-2.99 10.33 -3.98 10.66 -5 11 C-5 13.31 -5 15.62 -5 18 C-5.99 18 -6.98 18 -8 18 C-8.21192221 12.80790596 -7.5912689 8.873261 -6 4 C-5.34 4 -4.68 4 -4 4 C-4 3.01 -4 2.02 -4 1 C-2 0 -2 0 0 0 Z " fill="#54E046" transform="translate(28,25)"/>
<path d="M0 0 C2.45331002 3.67996503 2.39507893 5.65413172 2 10 C1.01 10.66 0.02 11.32 -1 12 C-3.35448165 9.44931155 -3.98327924 8.28982642 -4.1875 4.75 C-4.125625 3.8425 -4.06375 2.935 -4 2 C-2.68 1.34 -1.36 0.68 0 0 Z " fill="#5EE04E" transform="translate(33,19)"/>
<path d="M0 0 C0.66 0.33 1.32 0.66 2 1 C2.1875 4.375 2.1875 4.375 2 8 C-1.52572807 10.35048538 -2.85013645 10.66397817 -7 10 C-9.04950728 8.16398307 -10.39196015 6.27017391 -12 4 C-11.13375 4.4640625 -11.13375 4.4640625 -10.25 4.9375 C-6.44868981 6.73256315 -4.05982172 7.3049427 0 6 C0 4.02 0 2.04 0 0 Z " fill="#9AE58F" transform="translate(82,70)"/>
<path d="M0 0 C1 3 1 3 0.8125 6.5625 C0.70125212 13.24973362 4.02990015 19.16683092 7 25 C1.56396867 22.28198433 1.56396867 22.28198433 0.15625 19.08203125 C-1.20277946 13.43606329 -2.67676692 5.35353385 0 0 Z " fill="#B0F0A9" transform="translate(30,38)"/>
<path d="M0 0 C1.66666667 1.66666667 3.33333333 3.33333333 5 5 C4.67 5.99 4.34 6.98 4 8 C3.65179959 9.66362417 3.31595508 11.32995171 3 13 C2.34 13 1.68 13 1 13 C1 11.68 1 10.36 1 9 C0.34 9 -0.32 9 -1 9 C-1.09765625 2.84765625 -1.09765625 2.84765625 -1 1 C-0.67 0.67 -0.34 0.34 0 0 Z " fill="#5BE453" transform="translate(23,45)"/>
<path d="M0 0 C3.63 0.33 7.26 0.66 11 1 C10.67 1.99 10.34 2.98 10 4 C6.37 4 2.74 4 -1 4 C-0.67 2.68 -0.34 1.36 0 0 Z " fill="#61E253" transform="translate(46,14)"/>
<path d="M0 0 C0.99 0.495 0.99 0.495 2 1 C2 1.66 2 2.32 2 3 C3.423125 2.4740625 3.423125 2.4740625 4.875 1.9375 C8 1 8 1 10 2 C9.34 4.64 8.68 7.28 8 10 C6.5 8.6875 6.5 8.6875 5 7 C5 6.01 5 5.02 5 4 C3.68 4 2.36 4 1 4 C0.67 2.68 0.34 1.36 0 0 Z " fill="#62DF54" transform="translate(66,54)"/>
<path d="M0 0 C1.32 0 2.64 0 4 0 C4.33 1.32 4.66 2.64 5 4 C5.66 4 6.32 4 7 4 C6.67 4.99 6.34 5.98 6 7 C4.125 6.6875 4.125 6.6875 2 6 C0 3 0 3 0 0 Z " fill="#53E048" transform="translate(57,56)"/>
<path d="M0 0 C5.44208234 0.34013015 8.93668198 3.70296528 13 7 C12.38125 7.144375 11.7625 7.28875 11.125 7.4375 C8.96741678 7.93152225 8.96741678 7.93152225 7 9 C6.67 7.35 6.34 5.7 6 4 C4.68 3.67 3.36 3.34 2 3 C2 2.34 2 1.68 2 1 C1.34 0.67 0.68 0.34 0 0 Z " fill="#90E782" transform="translate(61,12)"/>
<path d="M0 0 C0.66 0.33 1.32 0.66 2 1 C2 2.32 2 3.64 2 5 C-0.21976911 6.34771696 -1.50147776 7.04398726 -4.125 6.8125 C-6 6 -6 6 -8 3 C-7.13375 3.2784375 -7.13375 3.2784375 -6.25 3.5625 C-3.79307475 4.04023546 -2.35602466 3.75729364 0 3 C0 2.01 0 1.02 0 0 Z " fill="#50DB40" transform="translate(80,71)"/>
<path d="M0 0 C2.02910711 0.25327449 4.04962145 0.57730068 6.0625 0.9375 C7.16722656 1.13214844 8.27195312 1.32679687 9.41015625 1.52734375 C10.69212891 1.76130859 10.69212891 1.76130859 12 2 C12 2.66 12 3.32 12 4 C3.80743982 4.4726477 3.80743982 4.4726477 0.4375 2.5 C-0.036875 2.005 -0.51125 1.51 -1 1 C-0.67 0.67 -0.34 0.34 0 0 Z " fill="#62E256" transform="translate(41,70)"/>
<path d="M0 0 C2.125 0.375 2.125 0.375 4 1 C4.33 2.98 4.66 4.96 5 7 C2.11562221 5.70700306 0.12780579 4.34058637 -2 2 C-1.34 1.34 -0.68 0.68 0 0 Z " fill="#50E148" transform="translate(70,19)"/>
<path d="M0 0 C2.31459868 1.81817001 2.95377187 2.75615543 3.51171875 5.69921875 C3.56972656 6.68535156 3.62773438 7.67148437 3.6875 8.6875 C3.75324219 9.68136719 3.81898437 10.67523438 3.88671875 11.69921875 C3.92410156 12.45847656 3.96148437 13.21773437 4 14 C3.34 14 2.68 14 2 14 C1.66179834 12.4176994 1.32964061 10.83410625 1 9.25 C0.814375 8.36828125 0.62875 7.4865625 0.4375 6.578125 C0 4 0 4 0 0 Z " fill="#51D941" transform="translate(72,34)"/>
<path d="M0 0 C0 3 0 3 -0.6875 5 C-0.790625 5.66 -0.89375 6.32 -1 7 C0.35444301 8.77190909 0.35444301 8.77190909 2 10 C1.67 10.66 1.34 11.32 1 12 C-0.65 11.01 -2.3 10.02 -4 9 C-2.25 2.25 -2.25 2.25 0 0 Z " fill="#9DE891" transform="translate(80,58)"/>
<path d="M0 0 C2.4375 0.75 2.4375 0.75 5 2 C5.8125 4.125 5.8125 4.125 6 6 C4.125 5.8125 4.125 5.8125 2 5 C0.75 2.4375 0.75 2.4375 0 0 Z " fill="#59D846" transform="translate(24,60)"/>
<path d="M0 0 C0.33 0.66 0.66 1.32 1 2 C0.67 2.99 0.34 3.98 0 5 C0.66 5 1.32 5 2 5 C2.33 6.98 2.66 8.96 3 11 C1 9.9375 1 9.9375 -1 8 C-1.3125 4.375 -1.3125 4.375 -1 1 C-0.67 0.67 -0.34 0.34 0 0 Z " fill="#8FE083" transform="translate(55,50)"/>
<path d="M0 0 C0.33 0.99 0.66 1.98 1 3 C-5.625 4 -5.625 4 -9 4 C-3.375 0 -3.375 0 0 0 Z " fill="#8CE484" transform="translate(40,13)"/>
<path d="M0 0 C3.96 0.33 7.92 0.66 12 1 C12 1.33 12 1.66 12 2 C8.37 2.33 4.74 2.66 1 3 C0.67 2.01 0.34 1.02 0 0 Z " fill="#4ED73E" transform="translate(44,69)"/>
<path d="M0 0 C0 3.69418201 -1.28179295 5.77836178 -3 9 C-3.82638376 6.10765685 -4 4.11257569 -4 1 C-2.68 0.67 -1.36 0.34 0 0 Z " fill="#94E986" transform="translate(34,29)"/>
<path d="M0 0 C0.33 0.99 0.66 1.98 1 3 C1.99 2.67 2.98 2.34 4 2 C3.67 3.98 3.34 5.96 3 8 C2.34 8 1.68 8 1 8 C0.67 5.36 0.34 2.72 0 0 Z " fill="#47DC40" transform="translate(21,51)"/>
<path d="M0 0 C2 2 2 2 2 5 C0.35 5.33 -1.3 5.66 -3 6 C-3 3 -3 3 -1.5 1.3125 C-0.7575 0.6628125 -0.7575 0.6628125 0 0 Z " fill="#53E348" transform="translate(33,61)"/>
<path d="M0 0 C2.97 0.495 2.97 0.495 6 1 C6.33 2.65 6.66 4.3 7 6 C5.83054208 5.19152271 4.66449539 4.37810888 3.5 3.5625 C2.8503125 3.11003906 2.200625 2.65757813 1.53125 2.19140625 C1.0259375 1.79824219 0.520625 1.40507812 0 1 C0 0.67 0 0.34 0 0 Z " fill="#9CE892" transform="translate(61,24)"/>
<path d="M0 0 C0.66 0.33 1.32 0.66 2 1 C0.6875 3.5 0.6875 3.5 -1 6 C-1.99 6 -2.98 6 -4 6 C-2.84826645 3.53199953 -1.95216435 1.95216435 0 0 Z " fill="#9AE48E" transform="translate(29,18)"/>
<path d="M0 0 C0.33 0.99 0.66 1.98 1 3 C0.34 3 -0.32 3 -1 3 C-1.33 3.99 -1.66 4.98 -2 6 C-2.66 5.67 -3.32 5.34 -4 5 C-3.6875 3.0625 -3.6875 3.0625 -3 1 C-2.01 0.67 -1.02 0.34 0 0 Z " fill="#4DE445" transform="translate(33,19)"/>
</svg>
